<svg width="40" height="40" fill="none" xmlns="http://www.w3.org/2000/svg"><g opacity=".5" stroke="#48494D" stroke-width="1.5"><path d="M11.194 20h17.612"/><path d="M11.194 20h17.612" stroke-miterlimit="10" stroke-linecap="round" stroke-linejoin="round"/><path d="M20 14.53v10.94"/><path d="M20 14.53v10.94" stroke-miterlimit="10" stroke-linecap="round" stroke-linejoin="round"/><path d="M28.806 14.53V20"/><path d="M28.806 14.53V20" stroke-miterlimit="10" stroke-linecap="round" stroke-linejoin="round"/><path d="M11.194 14.53V25.47"/><path d="M11.194 14.53V25.47M11.194 14.53a2.686 2.686 0 1 0 0-5.373 2.686 2.686 0 0 0 0 5.373ZM20 14.53a2.686 2.686 0 1 0 0-5.373 2.686 2.686 0 0 0 0 5.373ZM28.806 14.53a2.686 2.686 0 1 0 0-5.373 2.686 2.686 0 0 0 0 5.373ZM11.194 30.843a2.686 2.686 0 1 0 0-5.372 2.686 2.686 0 0 0 0 5.372ZM20 30.843a2.686 2.686 0 1 0 0-5.372 2.686 2.686 0 0 0 0 5.372Z" stroke-miterlimit="10" stroke-linecap="round" stroke-linejoin="round"/></g></svg>